<svg width="31" height="30" viewBox="0 0 31 30" fill="none" xmlns="http://www.w3.org/2000/svg">
<path fill-rule="evenodd" clip-rule="evenodd" d="M15.7041 25.7025C16.7791 25.6278 17.8448 25.4539 18.8877 25.1831C20.1748 25.5759 21.5354 25.6648 22.8626 25.4428C22.9152 25.4343 22.9683 25.4303 23.0215 25.4306C23.4951 25.4306 24.1168 25.7056 25.0227 26.2861V25.3313C25.0229 25.1661 25.067 25.004 25.1505 24.8614C25.234 24.7189 25.3538 24.6011 25.4978 24.5201C25.8919 24.2971 26.2586 24.0404 26.5931 23.7578C27.913 22.6396 28.6585 21.1486 28.6585 19.569C28.6585 19.039 28.5745 18.5241 28.4156 18.0322C28.8143 17.2883 29.1366 16.5061 29.3734 15.695C30.139 16.8422 30.5492 18.1898 30.5528 19.569C30.5528 21.7154 29.5537 23.7166 27.8259 25.1801C27.5375 25.4241 27.234 25.6497 26.917 25.8553V28.0872C26.917 28.8556 26.031 29.2971 25.4062 28.8403C24.8153 28.3986 24.2036 27.9857 23.573 27.6029C23.3924 27.4948 23.2046 27.3994 23.0108 27.3172C22.4914 27.3951 21.9598 27.4349 21.4236 27.4349C19.2666 27.4349 17.273 26.7887 15.7041 25.7025ZM4.29877 21.2388C1.57347 18.9274 0 15.779 0 12.4044C0 5.51019 6.50468 0 14.4469 0C22.3906 0 28.8953 5.51019 28.8953 12.4044C28.8953 19.3002 22.3891 24.8104 14.4469 24.8104C13.5547 24.8104 12.6718 24.7416 11.8071 24.6041C11.4328 24.6928 9.93729 25.5818 7.78179 27.1553C7.00117 27.7266 5.89363 27.1752 5.89363 26.2143V22.4074C5.33543 22.0555 4.80252 21.665 4.29877 21.2388ZM11.8591 22.2562C11.9247 22.2562 11.992 22.2607 12.0576 22.2714C12.8367 22.4028 13.6372 22.47 14.4469 22.47C21.1563 22.47 26.5259 17.9207 26.5259 12.4044C26.5259 6.88965 21.1563 2.34034 14.4469 2.34034C7.74054 2.34034 2.36784 6.88965 2.36784 12.4044C2.36784 15.0717 3.62203 17.5831 5.84016 19.4621C6.39775 19.9326 7.01033 20.3604 7.66722 20.7331C8.03538 20.9409 8.263 21.3289 8.263 21.7475V23.9427C9.96784 22.7985 11.0891 22.2562 11.8591 22.2562ZM8.28897 14.7463C7.24253 14.7463 6.39469 13.9061 6.39469 12.8734C6.39469 11.8392 7.24253 11.0005 8.28897 11.0005C9.3354 11.0005 10.1832 11.8392 10.1832 12.8734C10.1832 13.9076 9.3354 14.7463 8.28897 14.7463ZM14.4469 14.7463C13.4004 14.7463 12.5526 13.9061 12.5526 12.8734C12.5526 11.8392 13.4004 11.0005 14.4469 11.0005C15.4933 11.0005 16.3411 11.8392 16.3411 12.8734C16.3411 13.9076 15.4933 14.7463 14.4469 14.7463ZM20.6048 14.7463C19.5584 14.7463 18.7105 13.9061 18.7105 12.8734C18.7105 11.8392 19.5584 11.0005 20.6048 11.0005C21.6512 11.0005 22.4991 11.8392 22.4991 12.8734C22.4991 13.9076 21.6512 14.7463 20.6048 14.7463Z" fill="white"/>
</svg>
